<svg xmlns="http://www.w3.org/2000/svg" xmlns:xlink="http://www.w3.org/1999/xlink" width="2000" zoomAndPan="magnify" viewBox="0 0 1500 1499.999933" height="2000" preserveAspectRatio="xMidYMid meet" version="1.0"><defs><g/><clipPath id="6fdcc3c4b3"><rect x="0" width="913" y="0" height="298"/></clipPath><clipPath id="7b3de0a7cc"><rect x="0" width="613" y="0" height="72"/></clipPath><clipPath id="272e1c8cfa"><path d="M 39 949 L 149 949 L 149 974.03125 L 39 974.03125 Z M 39 949 " clip-rule="nonzero"/></clipPath><clipPath id="291fb3df87"><path d="M 446 949 L 556 949 L 556 974.03125 L 446 974.03125 Z M 446 949 " clip-rule="nonzero"/></clipPath><clipPath id="c0bbd4b726"><path d="M 138 526.28125 L 456 526.28125 L 456 811 L 138 811 Z M 138 526.28125 " clip-rule="nonzero"/></clipPath></defs><path stroke-linecap="butt" transform="matrix(0.749989, 0.00409696, -0.00409696, 0.749989, 1334.47235, 870.108769)" fill="none" stroke-linejoin="miter" d="M 0.00149634 14.501017 L 120.138711 14.501003 " stroke="#ffffff" stroke-width="29" stroke-opacity="1" stroke-miterlimit="4"/><path stroke-linecap="butt" transform="matrix(0.749989, 0.00409696, -0.00409696, 0.749989, 587.026159, 870.354865)" fill="none" stroke-linejoin="miter" d="M -0.00253979 14.501036 L 120.139883 14.500994 " stroke="#ffffff" stroke-width="29" stroke-opacity="1" stroke-miterlimit="4"/><g transform="matrix(1, 0, 0, 1, 575, 576)"><g clip-path="url(#6fdcc3c4b3)"><g fill="#ffffff" fill-opacity="1"><g transform="translate(0.938402, 247.309912)"><g><path d="M 110.953125 -161.390625 L 110.953125 -116.125 C 110.953125 -111.53125 109.472656 -107.671875 106.515625 -104.546875 C 103.566406 -101.429688 99.878906 -99.46875 95.453125 -98.65625 L 95.453125 -98.15625 C 99.878906 -97.5 103.566406 -95.570312 106.515625 -92.375 C 109.472656 -89.175781 110.953125 -85.28125 110.953125 -80.6875 L 110.953125 -35.421875 C 110.953125 -23.941406 107.914062 -15.164062 101.84375 -9.09375 C 95.78125 -3.03125 86.925781 0 75.28125 0 L 16.234375 0 C 13.609375 0 12.296875 -1.3125 12.296875 -3.9375 L 12.296875 -192.875 C 12.296875 -195.5 13.609375 -196.8125 16.234375 -196.8125 L 75.28125 -196.8125 C 86.925781 -196.8125 95.78125 -193.816406 101.84375 -187.828125 C 107.914062 -181.847656 110.953125 -173.035156 110.953125 -161.390625 Z M 78.234375 -124.234375 L 78.234375 -154.5 C 78.234375 -161.0625 74.953125 -164.34375 68.390625 -164.34375 L 46 -164.34375 L 46 -114.640625 L 68.390625 -114.640625 C 74.953125 -114.640625 78.234375 -117.835938 78.234375 -124.234375 Z M 78.234375 -42.3125 L 78.234375 -72.328125 C 78.234375 -78.890625 74.953125 -82.171875 68.390625 -82.171875 L 46 -82.171875 L 46 -32.46875 L 68.390625 -32.46875 C 74.953125 -32.46875 78.234375 -35.75 78.234375 -42.3125 Z M 78.234375 -42.3125 "/></g></g></g><g fill="#ffffff" fill-opacity="1"><g transform="translate(176.105271, 247.309912)"><g><path d="M 16.234375 -196.8125 L 41.828125 -196.8125 C 44.453125 -196.8125 45.765625 -195.5 45.765625 -192.875 L 45.765625 -3.9375 C 45.765625 -1.3125 44.453125 0 41.828125 0 L 16.234375 0 C 13.609375 0 12.296875 -1.3125 12.296875 -3.9375 L 12.296875 -192.875 C 12.296875 -195.5 13.609375 -196.8125 16.234375 -196.8125 Z M 16.234375 -196.8125 "/></g></g></g><g fill="#ffffff" fill-opacity="1"><g transform="translate(286.077122, 247.309912)"><g><path d="M 45.765625 -32.46875 L 45.765625 -192.875 C 45.765625 -195.5 44.453125 -196.8125 41.828125 -196.8125 L 16.234375 -196.8125 C 13.609375 -196.8125 12.296875 -195.5 12.296875 -192.875 L 12.296875 -3.9375 C 12.296875 -1.3125 13.609375 0 16.234375 0 L 104.3125 0 C 106.9375 0 108.25 -1.3125 108.25 -3.9375 L 108.25 -28.53125 C 108.25 -31.15625 106.9375 -32.46875 104.3125 -32.46875 Z M 45.765625 -32.46875 "/></g></g></g><g fill="#ffffff" fill-opacity="1"><g transform="translate(453.617356, 247.309912)"><g><path d="M 16.234375 -196.8125 L 41.828125 -196.8125 C 44.453125 -196.8125 45.765625 -195.5 45.765625 -192.875 L 45.765625 -3.9375 C 45.765625 -1.3125 44.453125 0 41.828125 0 L 16.234375 0 C 13.609375 0 12.296875 -1.3125 12.296875 -3.9375 L 12.296875 -192.875 C 12.296875 -195.5 13.609375 -196.8125 16.234375 -196.8125 Z M 16.234375 -196.8125 "/></g></g></g><g fill="#ffffff" fill-opacity="1"><g transform="translate(563.589222, 247.309912)"><g><path d="M 11.3125 -196.8125 L 101.84375 -196.8125 C 104.46875 -196.8125 105.78125 -195.5 105.78125 -192.875 L 105.78125 -168.28125 C 105.78125 -165.65625 104.46875 -164.34375 101.84375 -164.34375 L 73.3125 -164.34375 L 73.3125 -3.9375 C 73.3125 -1.3125 72 0 69.375 0 L 43.796875 0 C 41.171875 0 39.859375 -1.3125 39.859375 -3.9375 L 39.859375 -164.34375 L 11.3125 -164.34375 C 8.6875 -164.34375 7.375 -165.65625 7.375 -168.28125 L 7.375 -192.875 C 7.375 -195.5 8.6875 -196.8125 11.3125 -196.8125 Z M 11.3125 -196.8125 "/></g></g></g><g fill="#ffffff" fill-opacity="1"><g transform="translate(726.209075, 247.309912)"><g><path d="M 100.375 -196.8125 L 124.96875 -196.8125 C 126.78125 -196.8125 128.09375 -196.316406 128.90625 -195.328125 C 129.726562 -194.347656 129.726562 -192.957031 128.90625 -191.15625 L 83.890625 -81.671875 L 83.890625 -4.921875 C 83.890625 -1.640625 82.25 0 78.96875 0 L 55.359375 0 C 52.078125 0 50.4375 -1.640625 50.4375 -4.921875 L 50.4375 -81.671875 L 5.40625 -191.15625 C 4.75 -192.957031 4.789062 -194.347656 5.53125 -195.328125 C 6.269531 -196.316406 7.539062 -196.8125 9.34375 -196.8125 L 33.953125 -196.8125 C 36.734375 -196.8125 38.617188 -195.5 39.609375 -192.875 L 67.15625 -122.265625 L 94.71875 -192.875 C 95.695312 -195.5 97.582031 -196.8125 100.375 -196.8125 Z M 100.375 -196.8125 "/></g></g></g></g></g><g transform="matrix(1, 0, 0, 1, 703, 845)"><g clip-path="url(#7b3de0a7cc)"><g fill="#ffffff" fill-opacity="1"><g transform="translate(0.92677, 57.04859)"><g><path d="M 5.53125 0 L 5.53125 -45.234375 L 25.890625 -45.234375 C 30.722656 -45.234375 34.523438 -43.921875 37.296875 -41.296875 C 40.078125 -38.679688 41.46875 -35.140625 41.46875 -30.671875 C 41.46875 -26.210938 40.078125 -22.671875 37.296875 -20.046875 C 34.523438 -17.429688 30.722656 -16.125 25.890625 -16.125 L 10.65625 -16.125 L 10.65625 0 Z M 10.65625 -20.90625 L 25.5625 -20.90625 C 29.113281 -20.90625 31.796875 -21.769531 33.609375 -23.5 C 35.429688 -25.226562 36.34375 -27.617188 36.34375 -30.671875 C 36.34375 -33.679688 35.429688 -36.050781 33.609375 -37.78125 C 31.796875 -39.507812 29.113281 -40.375 25.5625 -40.375 L 10.65625 -40.375 Z M 10.65625 -20.90625 "/></g></g></g><g fill="#ffffff" fill-opacity="1"><g transform="translate(51.75819, 57.04859)"><g><path d="M 5.53125 0 L 5.53125 -45.234375 L 10.65625 -45.234375 L 10.65625 -4.921875 L 35.328125 -4.921875 L 35.328125 0 Z M 5.53125 0 "/></g></g></g><g fill="#ffffff" fill-opacity="1"><g transform="translate(93.776105, 57.04859)"><g><path d="M 24.1875 0.546875 C 20.445312 0.546875 17.128906 -0.28125 14.234375 -1.9375 C 11.347656 -3.601562 9.082031 -5.9375 7.4375 -8.9375 C 5.800781 -11.945312 4.984375 -15.457031 4.984375 -19.46875 L 4.984375 -45.234375 L 10.109375 -45.234375 L 10.109375 -19.34375 C 10.109375 -15.832031 10.78125 -12.984375 12.125 -10.796875 C 13.46875 -8.609375 15.222656 -7 17.390625 -5.96875 C 19.554688 -4.945312 21.820312 -4.4375 24.1875 -4.4375 C 26.601562 -4.4375 28.878906 -4.945312 31.015625 -5.96875 C 33.160156 -7 34.914062 -8.609375 36.28125 -10.796875 C 37.644531 -12.984375 38.328125 -15.832031 38.328125 -19.34375 L 38.328125 -45.234375 L 43.453125 -45.234375 L 43.453125 -19.46875 C 43.453125 -15.507812 42.628906 -12.023438 40.984375 -9.015625 C 39.347656 -6.015625 37.082031 -3.671875 34.1875 -1.984375 C 31.300781 -0.296875 27.96875 0.546875 24.1875 0.546875 Z M 24.1875 0.546875 "/></g></g></g><g fill="#ffffff" fill-opacity="1"><g transform="translate(150.141576, 57.04859)"><g><path d="M 5.53125 0 L 5.53125 -45.234375 L 11.484375 -45.234375 L 27.671875 -23.78125 L 43.59375 -45.234375 L 49.53125 -45.234375 L 49.53125 0 L 44.40625 0 L 44.40625 -37.4375 L 27.671875 -15.921875 L 10.65625 -37.4375 L 10.65625 0 Z M 5.53125 0 "/></g></g></g><g fill="#ffffff" fill-opacity="1"><g transform="translate(213.134224, 57.04859)"><g><path d="M 5.53125 0 L 5.53125 -45.234375 L 25.828125 -45.234375 C 29.378906 -45.234375 32.191406 -44.617188 34.265625 -43.390625 C 36.335938 -42.160156 37.828125 -40.625 38.734375 -38.78125 C 39.648438 -36.9375 40.109375 -35.101562 40.109375 -33.28125 C 40.109375 -30.363281 39.492188 -28.117188 38.265625 -26.546875 C 37.035156 -24.972656 35.625 -23.820312 34.03125 -23.09375 C 35.300781 -22.6875 36.582031 -22.035156 37.875 -21.140625 C 39.175781 -20.253906 40.257812 -19.0625 41.125 -17.5625 C 42 -16.0625 42.4375 -14.171875 42.4375 -11.890625 C 42.4375 -8.515625 41.144531 -5.6875 38.5625 -3.40625 C 35.988281 -1.132812 32.128906 0 26.984375 0 Z M 10.65625 -25.015625 L 25.828125 -25.015625 C 27.421875 -25.015625 28.910156 -25.285156 30.296875 -25.828125 C 31.691406 -26.367188 32.820312 -27.21875 33.6875 -28.375 C 34.550781 -29.539062 34.984375 -31.035156 34.984375 -32.859375 C 34.984375 -34.140625 34.695312 -35.347656 34.125 -36.484375 C 33.5625 -37.628906 32.648438 -38.5625 31.390625 -39.28125 C 30.140625 -40.007812 28.46875 -40.375 26.375 -40.375 L 10.65625 -40.375 Z M 10.65625 -4.84375 L 27.53125 -4.84375 C 30.632812 -4.84375 33.039062 -5.492188 34.75 -6.796875 C 36.457031 -8.097656 37.3125 -9.929688 37.3125 -12.296875 C 37.3125 -14.441406 36.488281 -16.320312 34.84375 -17.9375 C 33.207031 -19.550781 30.585938 -20.359375 26.984375 -20.359375 L 10.65625 -20.359375 Z M 10.65625 -4.84375 "/></g></g></g><g fill="#ffffff" fill-opacity="1"><g transform="translate(266.288579, 57.04859)"><g><path d="M 5.53125 0 L 5.53125 -45.234375 L 10.65625 -45.234375 L 10.65625 0 Z M 5.53125 0 "/></g></g></g><g fill="#ffffff" fill-opacity="1"><g transform="translate(290.406277, 57.04859)"><g><path d="M 5.53125 0 L 5.53125 -45.234375 L 11.484375 -45.234375 L 39.421875 -7.171875 L 39.421875 -45.234375 L 44.546875 -45.234375 L 44.546875 0 L 38.609375 0 L 10.65625 -38.203125 L 10.65625 0 Z M 5.53125 0 "/></g></g></g><g fill="#ffffff" fill-opacity="1"><g transform="translate(348.411472, 57.04859)"><g><path d="M 24.796875 0.546875 C 20.203125 0.546875 16.253906 -0.488281 12.953125 -2.5625 C 9.648438 -4.632812 7.109375 -7.421875 5.328125 -10.921875 C 3.554688 -14.429688 2.671875 -18.328125 2.671875 -22.609375 C 2.671875 -26.898438 3.578125 -30.796875 5.390625 -34.296875 C 7.210938 -37.804688 9.796875 -40.597656 13.140625 -42.671875 C 16.492188 -44.742188 20.425781 -45.78125 24.9375 -45.78125 C 29.8125 -45.78125 34.035156 -44.582031 37.609375 -42.1875 C 41.191406 -39.800781 43.820312 -36.71875 45.5 -32.9375 L 39.90625 -32.9375 C 38.539062 -35.351562 36.640625 -37.265625 34.203125 -38.671875 C 31.765625 -40.085938 28.8125 -40.796875 25.34375 -40.796875 C 21.707031 -40.796875 18.566406 -39.984375 15.921875 -38.359375 C 13.273438 -36.742188 11.257812 -34.566406 9.875 -31.828125 C 8.488281 -29.097656 7.796875 -26.023438 7.796875 -22.609375 C 7.796875 -19.242188 8.476562 -16.179688 9.84375 -13.421875 C 11.207031 -10.671875 13.195312 -8.484375 15.8125 -6.859375 C 18.4375 -5.242188 21.570312 -4.4375 25.21875 -4.4375 C 27.945312 -4.4375 30.53125 -5.03125 32.96875 -6.21875 C 35.40625 -7.40625 37.382812 -9.113281 38.90625 -11.34375 C 40.4375 -13.570312 41.203125 -16.257812 41.203125 -19.40625 L 24.671875 -19.40625 L 24.671875 -24.046875 L 45.921875 -24.046875 L 45.921875 0 L 41.203125 0 L 41.203125 -8 C 40.242188 -6.539062 39.007812 -5.160156 37.5 -3.859375 C 36 -2.554688 34.191406 -1.492188 32.078125 -0.671875 C 29.960938 0.140625 27.535156 0.546875 24.796875 0.546875 Z M 24.796875 0.546875 "/></g></g></g><g fill="#ffffff" fill-opacity="1"><g transform="translate(405.733411, 57.04859)"><g/></g></g><g fill="#ffffff" fill-opacity="1"><g transform="translate(428.211401, 57.04859)"><g><path d="M 18.375 0.546875 C 15.550781 0.546875 12.929688 -0.0195312 10.515625 -1.15625 C 8.109375 -2.300781 6.175781 -3.882812 4.71875 -5.90625 C 3.257812 -7.9375 2.53125 -10.296875 2.53125 -12.984375 C 2.53125 -15.398438 3.257812 -17.570312 4.71875 -19.5 C 6.175781 -21.4375 8.222656 -22.910156 10.859375 -23.921875 C 9.859375 -24.234375 8.820312 -24.851562 7.75 -25.78125 C 6.6875 -26.71875 5.800781 -27.847656 5.09375 -29.171875 C 4.382812 -30.492188 4.03125 -31.90625 4.03125 -33.40625 C 4.03125 -36.914062 5.304688 -39.851562 7.859375 -42.21875 C 10.410156 -44.59375 14.144531 -45.78125 19.0625 -45.78125 C 22.15625 -45.78125 24.703125 -45.3125 26.703125 -44.375 C 28.710938 -43.445312 30.253906 -42.265625 31.328125 -40.828125 C 32.398438 -39.390625 33.09375 -37.894531 33.40625 -36.34375 L 28.015625 -36.34375 C 27.691406 -37.4375 26.765625 -38.507812 25.234375 -39.5625 C 23.710938 -40.613281 21.609375 -41.140625 18.921875 -41.140625 C 15.554688 -41.140625 13.085938 -40.375 11.515625 -38.84375 C 9.941406 -37.320312 9.15625 -35.488281 9.15625 -33.34375 C 9.15625 -30.789062 10.039062 -28.898438 11.8125 -27.671875 C 13.59375 -26.441406 15.664062 -25.828125 18.03125 -25.828125 L 29.046875 -25.828125 L 29.046875 -28.828125 L 33.828125 -28.828125 L 33.828125 -25.828125 L 38.265625 -25.828125 L 38.265625 -21.25 L 33.828125 -21.25 L 33.828125 -12.578125 C 33.828125 -8.703125 32.457031 -5.546875 29.71875 -3.109375 C 26.988281 -0.671875 23.207031 0.546875 18.375 0.546875 Z M 18.375 -4.03125 C 21.976562 -4.03125 24.65625 -4.859375 26.40625 -6.515625 C 28.164062 -8.179688 29.046875 -10.0625 29.046875 -12.15625 L 29.046875 -21.25 L 17.421875 -21.25 C 15.503906 -21.25 13.804688 -20.859375 12.328125 -20.078125 C 10.847656 -19.304688 9.695312 -18.296875 8.875 -17.046875 C 8.0625 -15.796875 7.65625 -14.394531 7.65625 -12.84375 C 7.65625 -11.289062 8.097656 -9.84375 8.984375 -8.5 C 9.867188 -7.15625 11.117188 -6.070312 12.734375 -5.25 C 14.359375 -4.4375 16.238281 -4.03125 18.375 -4.03125 Z M 18.375 -4.03125 "/></g></g></g><g fill="#ffffff" fill-opacity="1"><g transform="translate(475.763418, 57.04859)"><g/></g></g><g fill="#ffffff" fill-opacity="1"><g transform="translate(498.241409, 57.04859)"><g><path d="M 24.53125 0.546875 C 20.019531 0.546875 16.125 -0.488281 12.84375 -2.5625 C 9.5625 -4.632812 7.046875 -7.421875 5.296875 -10.921875 C 3.546875 -14.429688 2.671875 -18.328125 2.671875 -22.609375 C 2.671875 -26.898438 3.546875 -30.796875 5.296875 -34.296875 C 7.046875 -37.804688 9.5625 -40.597656 12.84375 -42.671875 C 16.125 -44.742188 20.019531 -45.78125 24.53125 -45.78125 C 27.945312 -45.78125 31.019531 -45.175781 33.75 -43.96875 C 36.488281 -42.757812 38.8125 -41.109375 40.71875 -39.015625 C 42.632812 -36.921875 44.070312 -34.484375 45.03125 -31.703125 L 39.625 -31.703125 C 38.488281 -34.484375 36.691406 -36.691406 34.234375 -38.328125 C 31.773438 -39.972656 28.675781 -40.796875 24.9375 -40.796875 C 21.289062 -40.796875 18.179688 -39.984375 15.609375 -38.359375 C 13.035156 -36.742188 11.085938 -34.566406 9.765625 -31.828125 C 8.453125 -29.097656 7.796875 -26.023438 7.796875 -22.609375 C 7.796875 -19.242188 8.453125 -16.179688 9.765625 -13.421875 C 11.085938 -10.671875 13.035156 -8.484375 15.609375 -6.859375 C 18.179688 -5.242188 21.289062 -4.4375 24.9375 -4.4375 C 28.675781 -4.4375 31.773438 -5.253906 34.234375 -6.890625 C 36.691406 -8.535156 38.488281 -10.75 39.625 -13.53125 L 45.03125 -13.53125 C 44.070312 -10.789062 42.632812 -8.363281 40.71875 -6.25 C 38.8125 -4.132812 36.488281 -2.472656 33.75 -1.265625 C 31.019531 -0.0546875 27.945312 0.546875 24.53125 0.546875 Z M 24.53125 0.546875 "/></g></g></g><g fill="#ffffff" fill-opacity="1"><g transform="translate(553.308755, 57.04859)"><g><path d="M 25.625 0.546875 C 22.207031 0.546875 19.085938 -0.0390625 16.265625 -1.21875 C 13.441406 -2.40625 11.015625 -4.066406 8.984375 -6.203125 C 6.953125 -8.347656 5.390625 -10.820312 4.296875 -13.625 C 3.210938 -16.425781 2.671875 -19.421875 2.671875 -22.609375 C 2.671875 -25.847656 3.210938 -28.851562 4.296875 -31.625 C 5.390625 -34.40625 6.953125 -36.867188 8.984375 -39.015625 C 11.015625 -41.160156 13.441406 -42.820312 16.265625 -44 C 19.085938 -45.1875 22.207031 -45.78125 25.625 -45.78125 C 29.039062 -45.78125 32.160156 -45.1875 34.984375 -44 C 37.804688 -42.820312 40.226562 -41.160156 42.25 -39.015625 C 44.28125 -36.867188 45.84375 -34.40625 46.9375 -31.625 C 48.03125 -28.851562 48.578125 -25.847656 48.578125 -22.609375 C 48.578125 -19.421875 48.03125 -16.425781 46.9375 -13.625 C 45.84375 -10.820312 44.28125 -8.347656 42.25 -6.203125 C 40.226562 -4.066406 37.804688 -2.40625 34.984375 -1.21875 C 32.160156 -0.0390625 29.039062 0.546875 25.625 0.546875 Z M 25.625 -4.4375 C 29.3125 -4.4375 32.488281 -5.242188 35.15625 -6.859375 C 37.820312 -8.484375 39.867188 -10.671875 41.296875 -13.421875 C 42.734375 -16.179688 43.453125 -19.242188 43.453125 -22.609375 C 43.453125 -26.023438 42.734375 -29.097656 41.296875 -31.828125 C 39.867188 -34.566406 37.820312 -36.742188 35.15625 -38.359375 C 32.488281 -39.984375 29.3125 -40.796875 25.625 -40.796875 C 21.976562 -40.796875 18.8125 -39.984375 16.125 -38.359375 C 13.4375 -36.742188 11.375 -34.566406 9.9375 -31.828125 C 8.507812 -29.097656 7.796875 -26.023438 7.796875 -22.609375 C 7.796875 -19.242188 8.507812 -16.179688 9.9375 -13.421875 C 11.375 -10.671875 13.4375 -8.484375 16.125 -6.859375 C 18.8125 -5.242188 21.976562 -4.4375 25.625 -4.4375 Z M 25.625 -4.4375 "/></g></g></g></g></g><g clip-path="url(#272e1c8cfa)"><path fill="#ffffff" d="M 39.441406 974.03125 L 39.441406 949.34375 L 148.042969 949.34375 L 148.042969 974.03125 Z M 39.441406 974.03125 " fill-opacity="1" fill-rule="nonzero"/></g><g clip-path="url(#291fb3df87)"><path fill="#ffffff" d="M 555.058594 949.34375 L 555.058594 974.03125 L 446.457031 974.03125 L 446.457031 949.34375 Z M 555.058594 949.34375 " fill-opacity="1" fill-rule="nonzero"/></g><path fill="#ffffff" d="M 178.839844 799.566406 L 194.703125 799.566406 L 194.703125 896.933594 L 178.839844 896.933594 Z M 178.839844 799.566406 " fill-opacity="1" fill-rule="nonzero"/><path fill="#ffffff" d="M 416.742188 896.953125 L 400.882812 896.953125 L 400.882812 799.585938 L 416.742188 799.585938 Z M 416.742188 896.953125 " fill-opacity="1" fill-rule="nonzero"/><g clip-path="url(#c0bbd4b726)"><path fill="#ffffff" d="M 391.226562 791.671875 L 425.855469 791.671875 L 425.855469 810.167969 L 455.957031 810.167969 L 354.316406 526.28125 L 240.164062 526.28125 L 138.546875 810.167969 L 169.167969 810.167969 L 169.167969 791.671875 L 203.023438 791.671875 L 203.023438 809.855469 L 222.636719 810.167969 L 297.25 602.753906 L 371.84375 810.167969 L 391.226562 810.167969 Z M 391.226562 791.671875 " fill-opacity="1" fill-rule="nonzero"/></g><path fill="#ffffff" d="M 203.390625 819.21875 L 391.113281 819.21875 L 391.113281 885.09375 L 203.390625 885.09375 Z M 203.390625 819.21875 " fill-opacity="1" fill-rule="nonzero"/><path fill="#ffffff" d="M 425.777344 819.21875 L 517.046875 819.21875 C 517.046875 819.21875 526.371094 819.453125 532 825.371094 C 537.628906 831.292969 538.65625 839.320312 538.65625 839.320312 L 538.65625 942.261719 L 463.132812 942.261719 L 463.132812 892.078125 C 463.132812 892.078125 463.152344 889.429688 460.519531 887.609375 C 457.890625 885.792969 454.15625 885.714844 454.15625 885.714844 L 425.777344 885.714844 L 425.777344 819.183594 Z M 425.777344 819.21875 " fill-opacity="1" fill-rule="nonzero"/><path fill="#ffffff" d="M 168.976562 819.21875 L 77.6875 819.21875 C 77.6875 819.21875 68.363281 819.453125 62.734375 825.371094 C 57.101562 831.292969 56.078125 839.320312 56.078125 839.320312 L 56.078125 942.261719 L 131.601562 942.261719 L 131.601562 892.078125 C 131.601562 892.078125 131.582031 889.429688 134.210938 887.609375 C 136.84375 885.792969 140.578125 885.714844 140.578125 885.714844 L 168.957031 885.714844 L 168.957031 819.183594 Z M 168.976562 819.21875 " fill-opacity="1" fill-rule="nonzero"/></svg>